# xmcd
#
# Track frame offsets:
#	150
#	11085
#	23384
#	37631
#	60316
#	76337
#	95306
#	107012
#	123213
#	137412
#	153618
#	171391
#	183706
#	194010
#	205710
#	218653
#	235073
#	247229
#	267579
#
# Disc length: 3784 seconds
#
# Revision: 0
# Processed by: cddbd v1.5.1PL0 Copyright (c) Steve Scherf et al.
# Submitted via: dBpowerAMP V4.0
#
DISCID=fb0ec613
DTITLE=John Williamson - Love is a good woman
DYEAR=1900
DGENRE=Country
TTITLE0=Good Woman
TTITLE1=Misty Blue
TTITLE2=Millions of women
TTITLE3=The truckie's wife
TTITLE4=Leave the lights on
TTITLE5=Kill the night
TTITLE6=Why don't we separate and be lovers
TTITLE7=The only one
TTITLE8=You've gotta be fair dinkum
TTITLE9=Love of a true blue girl
TTITLE10=The dusty road we know
TTITLE11=Heaven's right here
TTITLE12=Goodbye again
TTITLE13=Your body feels like heaven to me
TTITLE14=I still cry
TTITLE15=Special girl
TTITLE16=Tubbo station
TTITLE17=Winter green
TTITLE18=winter green
EXTD=
EXTT0=
EXTT1=
EXTT2=
EXTT3=
EXTT4=
EXTT5=
EXTT6=
EXTT7=
EXTT8=
EXTT9=
EXTT10=
EXTT11=
EXTT12=
EXTT13=
EXTT14=
EXTT15=
EXTT16=
EXTT17=
EXTT18=
PLAYORDER=
